<svg width="180" height="180" viewBox="0 0 180 180" fill="none" xmlns="http://www.w3.org/2000/svg">
  <rect x="30" y="40" width="120" height="100" rx="20" fill="#F6F8FB"/>
  <rect x="50" y="60" width="80" height="60" rx="12" fill="#FFFFFF"/>
  <!-- Calendar header -->
  <rect x="50" y="60" width="80" height="16" rx="8" fill="#B0C4DE"/>
  <!-- Calendar grid -->
  <rect x="60" y="80" width="12" height="12" rx="4" fill="#FFE082"/>
  <rect x="78" y="80" width="12" height="12" rx="4" fill="#EAF2FF"/>
  <rect x="96" y="80" width="12" height="12" rx="4" fill="#B2DFDB"/>
  <rect x="114" y="80" width="12" height="12" rx="4" fill="#FFAB91"/>
  <rect x="60" y="98" width="12" height="12" rx="4" fill="#EAF2FF"/>
  <rect x="78" y="98" width="12" height="12" rx="4" fill="#B2DFDB"/>
  <rect x="96" y="98" width="12" height="12" rx="4" fill="#FFE082"/>
  <rect x="114" y="98" width="12" height="12" rx="4" fill="#EAF2FF"/>
  <!-- Bell icon -->
  <ellipse cx="140" cy="70" rx="10" ry="10" fill="#FFAB91"/>
  <rect x="137" y="65" width="6" height="10" rx="3" fill="#FFF8E1"/>
  <ellipse cx="140" cy="80" rx="3" ry="2" fill="#B0C4DE"/>
  <!-- Checkmark -->
  <path d="M60 110 l6 6 l12 -12" stroke="#34A853" stroke-width="3" fill="none" stroke-linecap="round"/>
  <!-- Credit card icon -->
  <rect x="110" y="120" width="28" height="16" rx="4" fill="#B2DFDB"/>
  <rect x="114" y="128" width="8" height="2" rx="1" fill="#EAF2FF"/>
  <rect x="124" y="128" width="10" height="2" rx="1" fill="#EAF2FF"/>
</svg>
