<svg width="180" height="180" viewBox="0 0 180 180" fill="none" xmlns="http://www.w3.org/2000/svg">
  <rect x="30" y="40" width="120" height="100" rx="18" fill="#E3EAFD"/>
  <rect x="50" y="60" width="80" height="60" rx="8" fill="#FFFFFF"/>
  <rect x="60" y="70" width="60" height="8" rx="4" fill="#B0C4DE"/>
  <rect x="60" y="85" width="40" height="6" rx="3" fill="#B0C4DE"/>
  <rect x="60" y="97" width="50" height="6" rx="3" fill="#B0C4DE"/>
  <rect x="60" y="109" width="30" height="6" rx="3" fill="#B0C4DE"/>
  <rect x="60" y="121" width="20" height="6" rx="3" fill="#B0C4DE"/>
  <rect x="110" y="120" width="18" height="18" rx="4" fill="#AEE1F9"/>
  <rect x="112" y="128" width="14" height="2" rx="1" fill="#90CAF9"/>
  <rect x="112" y="132" width="10" height="2" rx="1" fill="#90CAF9"/>
  <rect x="112" y="136" width="8" height="2" rx="1" fill="#90CAF9"/>
  <rect x="80" y="140" width="20" height="6" rx="3" fill="#B0C4DE"/>
  <rect x="70" y="150" width="40" height="4" rx="2" fill="#AEE1F9"/>
  <rect x="80" y="155" width="20" height="4" rx="2" fill="#AEE1F9"/>
  <rect x="90" y="160" width="10" height="4" rx="2" fill="#AEE1F9"/>
  <rect x="80" y="50" width="20" height="6" rx="3" fill="#90CAF9"/>
  <rect x="90" y="45" width="10" height="4" rx="2" fill="#90CAF9"/>
  <rect x="60" y="60" width="60" height="2" rx="1" fill="#AEE1F9"/>
  <rect x="60" y="65" width="60" height="2" rx="1" fill="#AEE1F9"/>
  <rect x="60" y="130" width="20" height="2" rx="1" fill="#EAF2FF"/>
  <rect x="100" y="130" width="20" height="2" rx="1" fill="#EAF2FF"/>
  <rect x="60" y="135" width="60" height="2" rx="1" fill="#EAF2FF"/>
  <rect x="60" y="140" width="60" height="2" rx="1" fill="#EAF2FF"/>
  <rect x="60" y="145" width="60" height="2" rx="1" fill="#EAF2FF"/>
  <rect x="60" y="150" width="60" height="2" rx="1" fill="#EAF2FF"/>
  <rect x="60" y="155" width="60" height="2" rx="1" fill="#EAF2FF"/>
  <rect x="60" y="160" width="60" height="2" rx="1" fill="#EAF2FF"/>
  <rect x="60" y="165" width="60" height="2" rx="1" fill="#EAF2FF"/>
  <rect x="60" y="170" width="60" height="2" rx="1" fill="#EAF2FF"/>
  <rect x="60" y="175" width="60" height="2" rx="1" fill="#EAF2FF"/>
  <rect x="60" y="180" width="60" height="2" rx="1" fill="#EAF2FF"/>
  <rect x="60" y="185" width="60" height="2" rx="1" fill="#EAF2FF"/>
  <rect x="60" y="190" width="60" height="2" rx="1" fill="#EAF2FF"/>
  <rect x="60" y="195" width="60" height="2" rx="1" fill="#EAF2FF"/>
  <rect x="60" y="200" width="60" height="2" rx="1" fill="#EAF2FF"/>
  <rect x="60" y="205" width="60" height="2" rx="1" fill="#EAF2FF"/>
  <rect x="60" y="210" width="60" height="2" rx="1" fill="#EAF2FF"/>
  <rect x="60" y="215" width="60" height="2" rx="1" fill="#EAF2FF"/>
  <rect x="60" y="220" width="60" height="2" rx="1" fill="#EAF2FF"/>
  <rect x="60" y="225" width="60" height="2" rx="1" fill="#EAF2FF"/>
  <rect x="60" y="230" width="60" height="2" rx="1" fill="#EAF2FF"/>
  <rect x="60" y="235" width="60" height="2" rx="1" fill="#EAF2FF"/>
  <rect x="60" y="240" width="60" height="2" rx="1" fill="#EAF2FF"/>
  <rect x="60" y="245" width="60" height="2" rx="1" fill="#EAF2FF"/>
  <rect x="60" y="250" width="60" height="2" rx="1" fill="#EAF2FF"/>
  <rect x="60" y="255" width="60" height="2" rx="1" fill="#EAF2FF"/>
  <rect x="60" y="260" width="60" height="2" rx="1" fill="#EAF2FF"/>
  <rect x="60" y="265" width="60" height="2" rx="1" fill="#EAF2FF"/>
  <rect x="60" y="270" width="60" height="2" rx="1" fill="#EAF2FF"/>
  <rect x="60" y="275" width="60" height="2" rx="1" fill="#EAF2FF"/>
  <rect x="60" y="280" width="60" height="2" rx="1" fill="#EAF2FF"/>
  <rect x="60" y="285" width="60" height="2" rx="1" fill="#EAF2FF"/>
  <rect x="60" y="290" width="60" height="2" rx="1" fill="#EAF2FF"/>
  <rect x="60" y="295" width="60" height="2" rx="1" fill="#EAF2FF"/>
  <rect x="60" y="300" width="60" height="2" rx="1" fill="#EAF2FF"/>
  <rect x="60" y="305" width="60" height="2" rx="1" fill="#EAF2FF"/>
  <rect x="60" y="310" width="60" height="2" rx="1" fill="#EAF2FF"/>
  <rect x="60" y="315" width="60" height="2" rx="1" fill="#EAF2FF"/>
  <rect x="60" y="320" width="60" height="2" rx="1" fill="#EAF2FF"/>
  <rect x="60" y="325" width="60" height="2" rx="1" fill="#EAF2FF"/>
  <rect x="60" y="330" width="60" height="2" rx="1" fill="#EAF2FF"/>
  <rect x="60" y="335" width="60" height="2" rx="1" fill="#EAF2FF"/>
  <rect x="60" y="340" width="60" height="2" rx="1" fill="#EAF2FF"/>
  <rect x="60" y="345" width="60" height="2" rx="1" fill="#EAF2FF"/>
  <rect x="60" y="350" width="60" height="2" rx="1" fill="#EAF2FF"/>
  <rect x="60" y="355" width="60" height="2" rx="1" fill="#EAF2FF"/>
  <rect x="60" y="360" width="60" height="2" rx="1" fill="#EAF2FF"/>
  <rect x="60" y="365" width="60" height="2" rx="1" fill="#EAF2FF"/>
  <rect x="60" y="370" width="60" height="2" rx="1" fill="#EAF2FF"/>
  <rect x="60" y="375" width="60" height="2" rx="1" fill="#EAF2FF"/>
  <rect x="60" y="380" width="60" height="2" rx="1" fill="#EAF2FF"/>
  <rect x="60" y="385" width="60" height="2" rx="1" fill="#EAF2FF"/>
  <rect x="60" y="390" width="60" height="2" rx="1" fill="#EAF2FF"/>
  <rect x="60" y="395" width="60" height="2" rx="1" fill="#EAF2FF"/>
  <rect x="60" y="400" width="60" height="2" rx="1" fill="#EAF2FF"/>
  <rect x="60" y="405" width="60" height="2" rx="1" fill="#EAF2FF"/>
  <rect x="60" y="410" width="60" height="2" rx="1" fill="#EAF2FF"/>
  <rect x="60" y="415" width="60" height="2" rx="1" fill="#EAF2FF"/>
  <rect x="60" y="420" width="60" height="2" rx="1" fill="#EAF2FF"/>
  <rect x="60" y="425" width="60" height="2" rx="1" fill="#EAF2FF"/>
  <rect x="60" y="430" width="60" height="2" rx="1" fill="#EAF2FF"/>
  <rect x="60" y="435" width="60" height="2" rx="1" fill="#EAF2FF"/>
  <rect x="60" y="440" width="60" height="2" rx="1" fill="#EAF2FF"/>
  <rect x="60" y="445" width="60" height="2" rx="1" fill="#EAF2FF"/>
  <rect x="60" y="450" width="60" height="2" rx="1" fill="#EAF2FF"/>
  <rect x="60" y="455" width="60" height="2" rx="1" fill="#EAF2FF"/>
  <rect x="60" y="460" width="60" height="2" rx="1" fill="#EAF2FF"/>
  <rect x="60" y="465" width="60" height="2" rx="1" fill="#EAF2FF"/>
  <rect x="60" y="470" width="60" height="2" rx="1" fill="#EAF2FF"/>
  <rect x="60" y="475" width="60" height="2" rx="1" fill="#EAF2FF"/>
  <rect x="60" y="480" width="60" height="2" rx="1" fill="#EAF2FF"/>
  <rect x="60" y="485" width="60" height="2" rx="1" fill="#EAF2FF"/>
  <rect x="60" y="490" width="60" height="2" rx="1" fill="#EAF2FF"/>
  <rect x="60" y="495" width="60" height="2" rx="1" fill="#EAF2FF"/>
</svg>
