<svg width="180" height="180" viewBox="0 0 180 180" fill="none" xmlns="http://www.w3.org/2000/svg">
  <rect x="20" y="40" width="140" height="100" rx="20" fill="#E3EAFD"/>
  <rect x="50" y="60" width="80" height="60" rx="8" fill="#FFFFFF"/>
  <rect x="60" y="70" width="60" height="8" rx="4" fill="#B0C4DE"/>
  <rect x="60" y="85" width="40" height="6" rx="3" fill="#B0C4DE"/>
  <rect x="60" y="97" width="50" height="6" rx="3" fill="#B0C4DE"/>
  <rect x="60" y="109" width="30" height="6" rx="3" fill="#B0C4DE"/>
  <rect x="60" y="121" width="20" height="6" rx="3" fill="#B0C4DE"/>
  <ellipse cx="90" cy="60" rx="12" ry="8" fill="#AEE1F9"/>
  <rect x="78" y="52" width="24" height="16" rx="8" fill="#90CAF9"/>
  <rect x="60" y="90" width="60" height="2" rx="1" fill="#42A5F5"/>
  <rect x="120" y="80" width="28" height="12" rx="6" fill="#FFE082"/>
  <rect x="120" y="100" width="28" height="12" rx="6" fill="#B2DFDB"/>
  <rect x="120" y="120" width="28" height="12" rx="6" fill="#FFAB91"/>
  <circle cx="60" cy="130" r="14" fill="#AEE1F9"/>
  <path d="M60 130 L60 116 A14 14 0 0 1 74 130 Z" fill="#42A5F5"/>
  <path d="M60 130 L74 130 A14 14 0 0 1 60 144 Z" fill="#FFE082"/>
  <path d="M60 130 L60 144 A14 14 0 0 1 46 130 Z" fill="#B2DFDB"/>
  <path d="M60 130 L46 130 A14 14 0 0 1 60 116 Z" fill="#FFAB91"/>
</svg>
